<?xml version="1.0" encoding="utf-8"?>
<!-- Generator: Adobe Illustrator 16.0.0, SVG Export Plug-In . SVG Version: 6.00 Build 0)  -->
<!DOCTYPE svg PUBLIC "-//W3C//DTD SVG 1.1//EN" "http://www.w3.org/Graphics/SVG/1.1/DTD/svg11.dtd">
<svg version="1.1" id="Layer_1" xmlns="http://www.w3.org/2000/svg" xmlns:xlink="http://www.w3.org/1999/xlink" x="0px" y="0px" viewBox="0 0 500 500" enable-background="new 0 0 500 500" xml:space="preserve">
<path id="path7601" fill="#B3C1C2" d="M30.25,299.812c4.315-14.985-1.907-32.813,4.681-46.977c1.615-3.464,7.695-0.396,10.586-3.73
	c3.545-4.094,2.064-9.08,3.21-13.842c0.893-3.71,4.208-7.358,5.624-10.985c3.84-9.839,15.282-9.68,11.208-22.608
	c-2.504-7.948,10.192-6.05,7.281-16.473c-2.902-10.39-5.588-18.419-10.489-27.979c-3.978-7.772,3.856-16.27,4.607-24.004
	c0.896-9.243-2.445-20.68,3.746-28.681c4.911-6.349,10.639-10.234,12.783-18.465c2.688-10.321,0.998-15.964,9.986-23.43
	c7.174-5.957,15.479-5.073,24.029-6.584c8.553-1.513,16.591-7.926,25.084-3.225c8.054,4.458,20.937,5.425,27.34,11.611
	c5.972,5.792,9.112,20.496,17.295,23.144c3.205,1.045,16.511-6.03,19.883-7.52c10.079-4.452,16.837-8.862,27.158-1.534
	c11.376,8.037,33.925,23.681,49.655,16.702c6.401-2.855,8.143-10.622,13.513-14.663c7.872-5.937,17.874-8.351,27.536-9.167
	c10.134-0.855,21.017-0.512,30.807,2.417c9.305,2.785,20.753,13.309,30.961,9.553c6.893-2.532,9.978-9.963,15.578-14.182
	c4.857-3.665,10.464-5.355,14.891-8.309c14.285-9.526,18.119,9.358,25.408,17.499c8.927,9.964,0.675,26.978,10.869,35.218
	c2.423,1.952,4.275,0.14,7.268,1.225c15.58,5.638,1.407,21.01,6.128,28.318c5.473,8.472-9.049,14.062-14.91,15.298
	c-10.075,2.125-13.623,2.958-17.511,13.869c-3.632,10.189-5.653,20.903-8.801,31.234c-1.422,4.694-7.528,5.02-7.647,10.414
	c-0.132,5.628,1.158,12.12-2.92,16.816c-3.464,3.994-8.448,5.788-13.104,8.167c5.182,1.02,0.028,14.288-0.34,17.288
	c-1.434,11.562-12.105,10.629-15.645,17.367c-2.985,5.687-6.592,5.776-5.955,13.419c0.548,6.593-2.254,13.437-4.971,19.302
	c-2.508,5.413-8.006,10.708-9.562,16.354c-0.955,3.465,1.11,6.901-0.324,10.32c-2.485,5.921-9.191,6.14-9.206,13.496
	c-0.014,6.596-4.877,8.544-7.696,13.711c-1.576,2.908-6.797,1.19-8.996,0.311c-2.701-1.075-2.079-9.084-2.267-11.481
	c-0.354-4.733-15.302-10.473-17.006-17.77c-1.059,3.636-1.322,10.066-5.958,11.086c-5.845,1.274-8.348-5.006-13.06-3.475
	c-8.881,2.872-10.574,15.437-17.589,20.911c-8.34,6.509-16.281,14.68-22.498,23.235c-4.771,6.563-0.438,12.012-3.601,19.743
	c-4.49,10.978-6.296,20.839-12.841,31.295c-2.851-0.729-5.779-4.725-4.316-7.714c-3.117,2.021-5.596-1.12-6.912-3.464
	c3.05,11.366,5.901,13.944-7.298,15.852c-5.221,0.759-22.396,4.193-17.583-6.524c-2.248,4.354-2.35,5.515-7.59,5.186
	c-5.798-0.358-4.797-1.86-10.424-5.532c2.634,1.925,5.816,11.857-0.443,9.347c-4.194-1.673,2.018-11.755-5.411-7.969
	c2.076,4.163,3.862,8.119,2.068,12.793c-3.438-1.455-7.393-13.843-6.193-17.628c-3.957,3.428,2.605,13.418,0.556,18.092
	c-2.861,6.522-2.832-8.781-2.664-10.141c-0.721,2.114-0.586,4.471-1.363,6.57c-1.398-0.008-1.633-1.163-0.703-3.465
	c0.123,2.93-0.678,5.579-2.4,7.949c-0.103-2.482-0.783-4.787-2.068-6.911c1.473,2.975,1.36,7.762-3.19,7.345
	c-8.214-0.734-5.959,1.151-8.232-6.657c0.068,6.016-5.705,13.443-6.913,3.108c0.082,6.74-3.549,1.49-6.76-0.083
	c-6.518-3.193-10.284-10.35-13.256-16.596c-1.872-3.933,1.073-16.929-5.23-15.132c-0.789-3.303-0.431-5.875,3.351-6.637
	c6.155-1.241,1.436-4.76,6.015-7.534c-3.947,0.3-7.433,5.664-11.313,4.776c-12.379-2.806,4.553-7.129,7.516-7.545
	c-2.002-2.428-4.307-2.774-6.913-1.038c0.105-1.503,0.218-3.001,0.332-4.503c-0.757,4.312-6.205,7.43-8.31,2.076
	c-1.899-4.853,3.928-6.997,6.581-9.68c-3.143,1.275-5.967,3.467-8.31,5.883c-4.403-10.027-12.515-19.68-22.662-24.203
	c-10.318-4.6-30.378,2.201-38.171-4.499c5.021,0.979,12.406-2.361,15.222-6.574c-5.137-0.244-8.783,5.81-13.834,1.729
	c-1.804,2.174-2.265,4.59-1.396,7.262c-8.28,1.085-16.721-0.501-24.928,1.378C30.327,344.492,41.721,317.544,30.25,299.812"/>
<g>
	<path fill-rule="evenodd" clip-rule="evenodd" fill="#F7491E" d="M251.499,241.419c-3.378,0.321-6.601-1.518-10.228,0.556
		c-1.753,1.001-7.464-0.718-7.653-1.833c-2.074-12.296-12.154-15.008-21.368-18.846c-2.15-0.896-4.628-1.59-4.721-4.385
		c-0.44-13.428-9.673-23.762-12.516-36.435c-7.022-31.319,7.316-56.852,39.986-62.751c18.655-3.368,35.382-0.845,51.004,9.927
		c13.149,9.064,18.175,25.517,17.578,41.478c-0.645,17.309-13.107,30.471-13.351,47.723c-0.064,4.562-8.873,6.341-14.135,8.504
		c-4.555,1.875-8.923,3.04-9.909,9.346C264.809,243.537,257.07,240.581,251.499,241.419z M239.229,188.273
		c-0.104-9.853-4.847-14.731-14.198-14.606c-9.324,0.125-15.632,6.735-15.63,16.379c0,9.071,7.083,15.724,16.432,15.438
		C233.62,205.246,239.33,197.907,239.229,188.273z M287.502,190.651c0.335-8.913-6.055-16.245-14.71-16.877
		c-6.719-0.492-14.922,7.554-15.276,14.978c-0.47,9.805,5.654,16.57,15.146,16.732C282.485,205.651,287.112,201.028,287.502,190.651
		z"/>
	<path fill-rule="evenodd" clip-rule="evenodd" fill="#F7491E" d="M234.824,288.435c-12.076-7.7-24.203-11.264-36.121-15.214
		c-5.407-1.789-10.108,1.054-14.736,3.675c-4.167,2.359-8.346,3.752-12.384-0.805c-4.075-4.601-0.872-8.271,1.645-11.241
		c4.087-4.824,1.925-10.122,2.307-15.179c0.599-7.917,4.254-10.596,11.598-7.649c2.08,0.834,4.44,1.998,5.686,3.725
		c13.379,18.536,36.08,21.247,53.929,32.143c3.767,2.299,6.334,0.154,9.103-1.11c9.457-4.32,18.639-9.271,28.205-13.314
		c7.116-3.006,13.206-7.014,18.379-12.727c2.835-3.13,5.619-6.375,9.828-8.096c6.865-2.805,10.187-1.255,10.37,5.868
		c0.186,7.181-0.664,14.367,4.791,20.402c2.096,2.318,2.166,5.735-0.055,8.21c-2.849,3.18-7.269,2.989-10.053,1.063
		c-19.228-13.307-33.717,3.101-49.896,7.895c-4.16,1.23-0.065,4.768,1.604,5.628c14.539,7.493,26.62,20.179,44.265,21.192
		c1.246,0.073,2.582,0.522,3.669,1.155c4.602,2.667,11.282,3.324,11.624,10.441c0.377,7.845-6.746,8.336-11.545,9.76
		c-3.899,1.156-6.04,3.646-8.749,5.903c-5.537,4.619-10.922,5.541-13.543-2.574c-6.567-20.339-25.786-26.955-40.674-38.249
		c-3.596-2.731-7.141-3.009-11.419,0.456c-7.551,6.116-16.221,10.838-23.887,16.829c-6.119,4.78-11.9,10.251-12.871,18.809
		c-0.488,4.291-2.291,7.128-7.21,7.81c-4.62,0.639-7.857-1.166-9.728-4.725c-2.292-4.365-5.173-6.377-10.157-5.873
		c-5.015,0.509-8.194-2.115-9.064-7.023c-0.94-5.303,1.278-9.005,6.511-10.611c2.772-0.854,5.577-1.844,8.433-2.141
		C204.153,310.848,217.352,296.702,234.824,288.435z"/>
	<path fill-rule="evenodd" clip-rule="evenodd" fill="#F7491E" d="M250.605,270.632c-11.706,1.083-31.129-18.234-31.173-31.751
		c-0.003-1.342-0.007-2.834,1.488-3.251c1.534-0.429,3.798-0.713,4.151,1.301c2.88,16.411,16.27,10.338,25.626,11.459
		c9.045,1.08,19.349,1.76,22.315-10.91c0.511-2.184,2.144-2.136,3.824-1.992c1.74,0.147,2.06,1.478,1.997,2.811
		C278.267,250.483,260.921,270.138,250.605,270.632z"/>
</g>
</svg>
