<?xml version="1.0" encoding="utf-8"?>
<!-- Generator: Adobe Illustrator 16.0.0, SVG Export Plug-In . SVG Version: 6.00 Build 0)  -->
<!DOCTYPE svg PUBLIC "-//W3C//DTD SVG 1.1//EN" "http://www.w3.org/Graphics/SVG/1.1/DTD/svg11.dtd">
<svg version="1.1" id="Layer_1" xmlns="http://www.w3.org/2000/svg" xmlns:xlink="http://www.w3.org/1999/xlink" x="0px" y="0px" viewBox="0 0 500 500" enable-background="new 0 0 500 500" xml:space="preserve">
<path fill="#22262B" d="M250,27.833c0,0-145,158.333-145,305c0,80.081,64.919,145,145,145s142.926-64.946,145-145
	C399.167,172,250,27.833,250,27.833z M322.891,321.551c-11.043,1.135-20.916-6.898-22.05-17.942c-0.12-1.166-0.138-2.319-0.061-3.45
	l0.053-0.658c0,0,0.057-0.757,0.164-2.176c0.055-0.712,0.123-1.591,0.203-2.623c0.041-0.519,0.086-1.075,0.133-1.669
	c0.017-0.609,0.034-1.257,0.053-1.94c0.04-1.373,0.084-2.894,0.132-4.549c0.019-1.671-0.038-3.506-0.054-5.46
	c0.008-1.95-0.106-4.059-0.223-6.287c-0.055-1.115-0.11-2.26-0.168-3.431c-0.065-1.174-0.187-2.385-0.279-3.618
	c-0.205-2.47-0.38-5.046-0.705-7.73c-0.302-2.682-0.562-5.461-0.978-8.326c-0.389-2.865-0.752-5.816-1.252-8.834
	c-0.469-3.019-0.94-6.111-1.52-9.252c-0.276-1.574-0.557-3.16-0.838-4.758c-0.309-1.598-0.619-3.207-0.932-4.825
	c-0.61-3.243-1.291-6.521-1.999-9.826c-1.389-6.616-2.959-13.327-4.584-20.04c-0.844-3.354-1.687-6.707-2.526-10.047
	c-0.888-3.334-1.771-6.656-2.649-9.952c-1.802-6.583-3.625-13.063-5.485-19.312c-3.691-12.507-7.39-24.136-10.703-34.064
	C260.014,100.911,255,87.833,255,87.833s7.258,11.97,17.353,30.448c5.056,9.235,10.809,20.103,16.74,31.901
	c2.979,5.893,5.97,12.033,8.97,18.305c1.479,3.149,2.969,6.323,4.465,9.51c1.455,3.213,2.916,6.438,4.377,9.664
	c2.868,6.484,5.691,13.005,8.333,19.508c1.334,3.246,2.64,6.479,3.873,9.704c0.624,1.611,1.244,3.212,1.859,4.802
	c0.592,1.604,1.18,3.196,1.762,4.775c1.189,3.15,2.27,6.295,3.335,9.376c1.094,3.067,2.05,6.128,3.014,9.099
	c0.987,2.959,1.818,5.906,2.666,8.742c0.869,2.825,1.582,5.623,2.299,8.3c0.351,1.342,0.719,2.645,1.032,3.943
	c0.305,1.305,0.602,2.578,0.893,3.82c0.585,2.485,1.141,4.847,1.557,7.127c0.436,2.27,0.879,4.379,1.22,6.37
	c0.309,2.011,0.593,3.858,0.85,5.527c0.127,0.837,0.247,1.629,0.359,2.375c0.082,0.764,0.159,1.479,0.23,2.145
	c0.141,1.336,0.26,2.472,0.356,3.393c0.189,1.848,0.291,2.833,0.291,2.833C341.968,310.544,333.935,320.416,322.891,321.551z"/>
</svg>
