<?xml version="1.0" encoding="utf-8"?>
<!-- Generator: Adobe Illustrator 16.0.0, SVG Export Plug-In . SVG Version: 6.00 Build 0)  -->
<!DOCTYPE svg PUBLIC "-//W3C//DTD SVG 1.1//EN" "http://www.w3.org/Graphics/SVG/1.1/DTD/svg11.dtd">
<svg version="1.1" id="Layer_1" xmlns="http://www.w3.org/2000/svg" xmlns:xlink="http://www.w3.org/1999/xlink" x="0px" y="0px"
	 viewBox="0 0 500 500" enable-background="new 0 0 500 500" xml:space="preserve">
<path fill="#FFF200" d="M247.457,237.5c0,0-75.4,82.333-75.4,158.6c0,41.644,33.757,75.4,75.4,75.4c41.641,0,74.32-33.772,75.4-75.4
	C325.022,312.467,247.457,237.5,247.457,237.5z M285.359,390.233c-5.742,0.591-10.877-3.588-11.467-9.33
	c-0.062-0.606-0.071-1.205-0.031-1.794l0.027-0.343c0,0,0.029-0.394,0.086-1.13c0.028-0.37,0.064-0.827,0.105-1.364
	c0.022-0.27,0.044-0.56,0.07-0.868c0.008-0.317,0.017-0.655,0.027-1.01c0.02-0.713,0.042-1.504,0.067-2.365
	c0.011-0.868-0.021-1.823-0.028-2.84c0.005-1.013-0.055-2.109-0.114-3.269c-0.029-0.58-0.059-1.175-0.089-1.784
	c-0.034-0.61-0.098-1.239-0.145-1.881c-0.106-1.284-0.198-2.624-0.367-4.02c-0.157-1.395-0.292-2.839-0.508-4.33
	c-0.203-1.488-0.391-3.023-0.651-4.594c-0.244-1.568-0.488-3.178-0.79-4.811c-0.145-0.818-0.29-1.644-0.437-2.475
	c-0.16-0.83-0.322-1.667-0.484-2.509c-0.317-1.686-0.672-3.392-1.038-5.109c-0.724-3.44-1.54-6.931-2.385-10.421
	c-0.439-1.744-0.878-3.488-1.314-5.225c-0.461-1.733-0.919-3.461-1.376-5.175c-0.938-3.423-1.887-6.792-2.854-10.042
	c-1.918-6.504-3.842-12.551-5.564-17.713c-3.438-10.333-6.045-17.134-6.045-17.134s3.773,6.225,9.024,15.833
	c2.63,4.803,5.621,10.453,8.704,16.588c1.55,3.064,3.104,6.258,4.664,9.52c0.769,1.637,1.545,3.287,2.322,4.944
	c0.758,1.671,1.517,3.349,2.276,5.026c1.491,3.371,2.959,6.762,4.334,10.144c0.692,1.688,1.371,3.368,2.014,5.046
	c0.324,0.838,0.646,1.67,0.965,2.496c0.31,0.834,0.614,1.662,0.918,2.484c0.617,1.637,1.18,3.272,1.734,4.875
	c0.568,1.596,1.065,3.188,1.567,4.731c0.513,1.539,0.944,3.072,1.386,4.546c0.451,1.47,0.822,2.924,1.194,4.315
	c0.185,0.698,0.375,1.375,0.537,2.052c0.158,0.677,0.313,1.341,0.464,1.985c0.306,1.292,0.594,2.521,0.81,3.707
	c0.228,1.181,0.457,2.276,0.635,3.312c0.16,1.046,0.309,2.006,0.441,2.874c0.066,0.435,0.13,0.848,0.188,1.234
	c0.043,0.397,0.082,0.77,0.12,1.115c0.073,0.696,0.135,1.286,0.186,1.766c0.098,0.962,0.15,1.473,0.15,1.473
	C295.279,384.509,291.102,389.644,285.359,390.233z"/>
<path fill="#EC008C" d="M368.457,40.5c0,0-75.4,82.333-75.4,158.6c0,41.644,33.757,75.4,75.4,75.4
	c41.641,0,74.319-33.772,75.399-75.4C446.022,115.467,368.457,40.5,368.457,40.5z M406.359,193.233
	c-5.742,0.591-10.877-3.588-11.467-9.33c-0.062-0.606-0.071-1.205-0.031-1.794l0.027-0.343c0,0,0.029-0.394,0.086-1.13
	c0.028-0.37,0.064-0.827,0.105-1.364c0.022-0.27,0.044-0.56,0.07-0.868c0.008-0.317,0.017-0.655,0.027-1.01
	c0.02-0.713,0.042-1.504,0.067-2.365c0.011-0.868-0.021-1.823-0.028-2.84c0.005-1.013-0.055-2.109-0.114-3.269
	c-0.029-0.58-0.059-1.175-0.089-1.784c-0.034-0.61-0.098-1.239-0.145-1.881c-0.106-1.284-0.198-2.624-0.367-4.02
	c-0.157-1.395-0.292-2.839-0.508-4.33c-0.203-1.488-0.391-3.023-0.651-4.594c-0.244-1.568-0.488-3.178-0.79-4.811
	c-0.145-0.818-0.29-1.644-0.437-2.475c-0.16-0.83-0.322-1.667-0.484-2.509c-0.317-1.686-0.672-3.392-1.038-5.109
	c-0.724-3.44-1.54-6.931-2.385-10.421c-0.439-1.744-0.878-3.488-1.314-5.225c-0.461-1.733-0.919-3.461-1.376-5.175
	c-0.938-3.423-1.887-6.792-2.854-10.042c-1.918-6.504-3.842-12.551-5.564-17.713c-3.438-10.333-6.045-17.134-6.045-17.134
	s3.773,6.225,9.024,15.833c2.63,4.803,5.621,10.453,8.704,16.588c1.55,3.064,3.104,6.258,4.664,9.52
	c0.769,1.637,1.545,3.287,2.322,4.944c0.758,1.671,1.517,3.349,2.276,5.026c1.491,3.371,2.959,6.762,4.334,10.144
	c0.692,1.688,1.371,3.368,2.014,5.046c0.324,0.838,0.646,1.67,0.965,2.496c0.31,0.834,0.614,1.662,0.918,2.484
	c0.617,1.637,1.18,3.272,1.734,4.875c0.568,1.596,1.065,3.188,1.567,4.731c0.513,1.539,0.944,3.072,1.386,4.546
	c0.451,1.47,0.822,2.924,1.194,4.315c0.185,0.698,0.375,1.375,0.537,2.052c0.158,0.677,0.313,1.341,0.464,1.985
	c0.306,1.292,0.594,2.521,0.81,3.707c0.228,1.181,0.457,2.276,0.635,3.312c0.16,1.046,0.309,2.006,0.441,2.874
	c0.066,0.435,0.13,0.848,0.188,1.234c0.043,0.397,0.082,0.77,0.12,1.115c0.073,0.696,0.135,1.286,0.186,1.766
	c0.098,0.962,0.15,1.473,0.15,1.473C416.279,187.509,412.102,192.644,406.359,193.233z"/>
<path fill="#00AEEF" d="M131.5,40.5c0,0-75.4,82.333-75.4,158.6c0,41.644,33.757,75.4,75.4,75.4c41.641,0,74.32-33.772,75.4-75.4
	C209.065,115.467,131.5,40.5,131.5,40.5z M169.402,193.233c-5.742,0.591-10.877-3.588-11.467-9.33
	c-0.062-0.606-0.071-1.205-0.031-1.794l0.027-0.343c0,0,0.029-0.394,0.086-1.13c0.028-0.37,0.064-0.827,0.105-1.364
	c0.022-0.27,0.044-0.56,0.07-0.868c0.008-0.317,0.017-0.655,0.027-1.01c0.02-0.713,0.042-1.504,0.067-2.365
	c0.011-0.868-0.021-1.823-0.028-2.84c0.005-1.013-0.055-2.109-0.114-3.269c-0.029-0.58-0.059-1.175-0.089-1.784
	c-0.034-0.61-0.098-1.239-0.145-1.881c-0.106-1.284-0.198-2.624-0.367-4.02c-0.157-1.395-0.292-2.839-0.508-4.33
	c-0.203-1.488-0.391-3.023-0.651-4.593c-0.244-1.569-0.488-3.178-0.79-4.812c-0.145-0.817-0.29-1.643-0.437-2.474
	c-0.16-0.831-0.322-1.667-0.484-2.509c-0.317-1.686-0.672-3.391-1.038-5.109c-0.724-3.44-1.54-6.93-2.385-10.42
	c-0.439-1.745-0.878-3.488-1.314-5.225c-0.461-1.733-0.919-3.461-1.376-5.175c-0.938-3.423-1.887-6.792-2.854-10.042
	c-1.918-6.504-3.842-12.551-5.564-17.713c-3.438-10.333-6.045-17.133-6.045-17.133s3.773,6.225,9.024,15.833
	c2.63,4.802,5.621,10.453,8.704,16.588c1.55,3.064,3.104,6.258,4.664,9.519c0.769,1.637,1.545,3.288,2.322,4.945
	c0.758,1.671,1.517,3.349,2.276,5.026c1.491,3.371,2.959,6.762,4.334,10.144c0.692,1.688,1.371,3.369,2.014,5.046
	c0.324,0.837,0.646,1.67,0.965,2.497c0.31,0.834,0.614,1.662,0.918,2.483c0.617,1.638,1.18,3.273,1.734,4.875
	c0.568,1.595,1.065,3.187,1.567,4.731c0.513,1.539,0.944,3.072,1.386,4.546c0.451,1.47,0.822,2.924,1.194,4.315
	c0.185,0.698,0.375,1.375,0.537,2.052c0.158,0.677,0.313,1.341,0.464,1.985c0.306,1.292,0.594,2.521,0.81,3.707
	c0.228,1.181,0.457,2.276,0.635,3.312c0.16,1.046,0.309,2.006,0.441,2.874c0.066,0.435,0.13,0.848,0.188,1.234
	c0.043,0.397,0.082,0.77,0.12,1.115c0.073,0.696,0.135,1.286,0.186,1.766c0.098,0.962,0.15,1.473,0.15,1.473
	C179.322,187.509,175.145,192.644,169.402,193.233z"/>
</svg>
